<svg width="89" height="24" viewBox="0 0 89 24" fill="none" xmlns="http://www.w3.org/2000/svg">
<g filter="url(#filter0_d_55_1923)">
<rect x="2" width="83" height="20" rx="4" fill="white"/>
</g>
<path d="M9.41335 14H8.24858L10.8658 6.72727H12.1335L14.7507 14H13.5859L11.5298 8.0483H11.473L9.41335 14ZM9.60866 11.152H13.3871V12.0753H9.60866V11.152ZM17.6697 14.1065C17.2294 14.1065 16.8364 13.9941 16.4908 13.7692C16.1475 13.5419 15.8776 13.2187 15.6811 12.7997C15.487 12.3783 15.3899 11.8729 15.3899 11.2834C15.3899 10.6939 15.4882 10.1896 15.6847 9.7706C15.8835 9.35156 16.1558 9.03078 16.5014 8.80824C16.8471 8.5857 17.2389 8.47443 17.6768 8.47443C18.0154 8.47443 18.2876 8.53125 18.4936 8.64489C18.7019 8.75616 18.8629 8.88636 18.9766 9.03551C19.0926 9.18466 19.1825 9.31605 19.2464 9.42969H19.3104V6.72727H20.3722V14H19.3352V13.1513H19.2464C19.1825 13.2673 19.0902 13.3999 18.9695 13.549C18.8511 13.6982 18.6877 13.8284 18.4794 13.9396C18.2711 14.0509 18.0012 14.1065 17.6697 14.1065ZM17.9041 13.201C18.2095 13.201 18.4676 13.1205 18.6783 12.9595C18.8913 12.7962 19.0523 12.5701 19.1612 12.2812C19.2725 11.9924 19.3281 11.6562 19.3281 11.2727C19.3281 10.8939 19.2737 10.5625 19.1648 10.2784C19.0559 9.99432 18.8961 9.77296 18.6854 9.61435C18.4747 9.45573 18.2143 9.37642 17.9041 9.37642C17.5845 9.37642 17.3182 9.45928 17.1051 9.625C16.892 9.79072 16.7311 10.0168 16.6222 10.3033C16.5156 10.5897 16.4624 10.9129 16.4624 11.2727C16.4624 11.6373 16.5168 11.9652 16.6257 12.2564C16.7346 12.5476 16.8956 12.7784 17.1087 12.9489C17.3241 13.117 17.5893 13.201 17.9041 13.201ZM23.9295 14.1065C23.4892 14.1065 23.0962 13.9941 22.7505 13.7692C22.4073 13.5419 22.1374 13.2187 21.9409 12.7997C21.7467 12.3783 21.6497 11.8729 21.6497 11.2834C21.6497 10.6939 21.7479 10.1896 21.9444 9.7706C22.1433 9.35156 22.4155 9.03078 22.7612 8.80824C23.1068 8.5857 23.4986 8.47443 23.9366 8.47443C24.2752 8.47443 24.5474 8.53125 24.7534 8.64489C24.9617 8.75616 25.1227 8.88636 25.2363 9.03551C25.3523 9.18466 25.4423 9.31605 25.5062 9.42969H25.5701V6.72727H26.6319V14H25.595V13.1513H25.5062C25.4423 13.2673 25.35 13.3999 25.2292 13.549C25.1109 13.6982 24.9475 13.8284 24.7392 13.9396C24.5308 14.0509 24.2609 14.1065 23.9295 14.1065ZM24.1639 13.201C24.4693 13.201 24.7273 13.1205 24.938 12.9595C25.1511 12.7962 25.3121 12.5701 25.421 12.2812C25.5323 11.9924 25.5879 11.6562 25.5879 11.2727C25.5879 10.8939 25.5334 10.5625 25.4245 10.2784C25.3156 9.99432 25.1558 9.77296 24.9451 9.61435C24.7344 9.45573 24.474 9.37642 24.1639 9.37642C23.8443 9.37642 23.5779 9.45928 23.3649 9.625C23.1518 9.79072 22.9908 10.0168 22.8819 10.3033C22.7754 10.5897 22.7221 10.9129 22.7221 11.2727C22.7221 11.6373 22.7766 11.9652 22.8855 12.2564C22.9944 12.5476 23.1554 12.7784 23.3684 12.9489C23.5839 13.117 23.849 13.201 24.1639 13.201ZM33.34 8.54545V9.39773H30.3606V8.54545H33.34ZM31.1596 7.23864H32.2214V12.3984C32.2214 12.6044 32.2522 12.7595 32.3137 12.8636C32.3753 12.9654 32.4546 13.0353 32.5517 13.0732C32.6511 13.1087 32.7588 13.1264 32.8748 13.1264C32.96 13.1264 33.0346 13.1205 33.0985 13.1087C33.1625 13.0968 33.2122 13.0874 33.2477 13.0803L33.4395 13.9574C33.3779 13.9811 33.2903 14.0047 33.1767 14.0284C33.063 14.0545 32.921 14.0687 32.7505 14.071C32.4712 14.0758 32.2108 14.026 31.9693 13.9219C31.7278 13.8177 31.5325 13.6567 31.3833 13.4389C31.2342 13.2211 31.1596 12.9477 31.1596 12.6186V7.23864ZM36.7536 14.1101C36.2422 14.1101 35.7959 13.9929 35.4148 13.7585C35.0336 13.5241 34.7377 13.1963 34.527 12.7749C34.3163 12.3535 34.2109 11.861 34.2109 11.2976C34.2109 10.7318 34.3163 10.237 34.527 9.81321C34.7377 9.38944 35.0336 9.06037 35.4148 8.82599C35.7959 8.59162 36.2422 8.47443 36.7536 8.47443C37.2649 8.47443 37.7112 8.59162 38.0923 8.82599C38.4735 9.06037 38.7694 9.38944 38.9801 9.81321C39.1908 10.237 39.2962 10.7318 39.2962 11.2976C39.2962 11.861 39.1908 12.3535 38.9801 12.7749C38.7694 13.1963 38.4735 13.5241 38.0923 13.7585C37.7112 13.9929 37.2649 14.1101 36.7536 14.1101ZM36.7571 13.2188C37.0885 13.2188 37.3632 13.1312 37.581 12.956C37.7988 12.7808 37.9598 12.5476 38.0639 12.2564C38.1705 11.9652 38.2237 11.6444 38.2237 11.294C38.2237 10.946 38.1705 10.6264 38.0639 10.3352C37.9598 10.0417 37.7988 9.80611 37.581 9.62855C37.3632 9.45099 37.0885 9.36222 36.7571 9.36222C36.4233 9.36222 36.1463 9.45099 35.9261 9.62855C35.7083 9.80611 35.5462 10.0417 35.4396 10.3352C35.3355 10.6264 35.2834 10.946 35.2834 11.294C35.2834 11.6444 35.3355 11.9652 35.4396 12.2564C35.5462 12.5476 35.7083 12.7808 35.9261 12.956C36.1463 13.1312 36.4233 13.2188 36.7571 13.2188ZM44.3104 14L42.7053 8.54545H43.8026L44.8714 12.5511H44.9247L45.9972 8.54545H47.0945L48.1598 12.5334H48.2131L49.2749 8.54545H50.3722L48.7706 14H47.6875L46.5795 10.0618H46.4979L45.3899 14H44.3104ZM51.3798 14V8.54545H52.4416V14H51.3798ZM51.916 7.70384C51.7314 7.70384 51.5727 7.64228 51.4402 7.51918C51.31 7.3937 51.2449 7.24455 51.2449 7.07173C51.2449 6.89654 51.31 6.7474 51.4402 6.62429C51.5727 6.49882 51.7314 6.43608 51.916 6.43608C52.1007 6.43608 52.2581 6.49882 52.3883 6.62429C52.5209 6.7474 52.5872 6.89654 52.5872 7.07173C52.5872 7.24455 52.5209 7.3937 52.3883 7.51918C52.2581 7.64228 52.1007 7.70384 51.916 7.70384ZM57.9574 9.87713L56.995 10.0476C56.9548 9.92448 56.8909 9.80729 56.8033 9.69602C56.718 9.58475 56.602 9.49361 56.4553 9.42259C56.3085 9.35156 56.125 9.31605 55.9048 9.31605C55.6042 9.31605 55.3532 9.38352 55.152 9.51847C54.9508 9.65104 54.8501 9.82268 54.8501 10.0334C54.8501 10.2157 54.9176 10.3625 55.0526 10.4737C55.1875 10.585 55.4053 10.6761 55.706 10.7472L56.5724 10.946C57.0743 11.062 57.4484 11.2408 57.6946 11.4822C57.9408 11.7237 58.0639 12.0374 58.0639 12.4233C58.0639 12.75 57.9692 13.0412 57.7798 13.2969C57.5928 13.5502 57.3312 13.7491 56.995 13.8935C56.6612 14.0379 56.2741 14.1101 55.8338 14.1101C55.223 14.1101 54.7247 13.9799 54.3388 13.7195C53.9529 13.4567 53.7161 13.0838 53.6286 12.6009L54.6548 12.4446C54.7188 12.7121 54.8501 12.9145 55.049 13.0518C55.2479 13.1868 55.5071 13.2543 55.8267 13.2543C56.1747 13.2543 56.4529 13.1821 56.6612 13.0376C56.8696 12.8909 56.9737 12.7121 56.9737 12.5014C56.9737 12.331 56.9098 12.1877 56.782 12.0717C56.6565 11.9557 56.4635 11.8681 56.2031 11.8089L55.2798 11.6065C54.7708 11.4905 54.3944 11.3059 54.1506 11.0526C53.9091 10.7992 53.7884 10.4785 53.7884 10.0902C53.7884 9.76823 53.8783 9.48651 54.0582 9.24503C54.2382 9.00355 54.4867 8.81534 54.804 8.6804C55.1212 8.54309 55.4846 8.47443 55.8942 8.47443C56.4837 8.47443 56.9477 8.60227 57.2862 8.85795C57.6248 9.11127 57.8485 9.45099 57.9574 9.87713ZM60.2931 10.7614V14H59.2314V6.72727H60.2789V9.43324H60.3464C60.4743 9.13968 60.6696 8.90649 60.9324 8.73366C61.1951 8.56084 61.5384 8.47443 61.9622 8.47443C62.3362 8.47443 62.6629 8.55137 62.9423 8.70526C63.224 8.85914 63.4418 9.08878 63.5957 9.39418C63.752 9.69721 63.8301 10.076 63.8301 10.5305V14H62.7683V10.6584C62.7683 10.2583 62.6653 9.94815 62.4593 9.72798C62.2534 9.50544 61.9669 9.39418 61.6 9.39418C61.349 9.39418 61.1241 9.44744 60.9252 9.55398C60.7288 9.66051 60.5737 9.81676 60.46 10.0227C60.3488 10.2263 60.2931 10.4725 60.2931 10.7614ZM66.3088 6.72727V14H65.247V6.72727H66.3088ZM67.7372 14V8.54545H68.799V14H67.7372ZM68.2734 7.70384C68.0888 7.70384 67.9302 7.64228 67.7976 7.51918C67.6674 7.3937 67.6023 7.24455 67.6023 7.07173C67.6023 6.89654 67.6674 6.7474 67.7976 6.62429C67.9302 6.49882 68.0888 6.43608 68.2734 6.43608C68.4581 6.43608 68.6155 6.49882 68.7457 6.62429C68.8783 6.7474 68.9446 6.89654 68.9446 7.07173C68.9446 7.24455 68.8783 7.3937 68.7457 7.51918C68.6155 7.64228 68.4581 7.70384 68.2734 7.70384ZM74.3148 9.87713L73.3525 10.0476C73.3122 9.92448 73.2483 9.80729 73.1607 9.69602C73.0755 9.58475 72.9595 9.49361 72.8127 9.42259C72.6659 9.35156 72.4824 9.31605 72.2623 9.31605C71.9616 9.31605 71.7106 9.38352 71.5094 9.51847C71.3082 9.65104 71.2076 9.82268 71.2076 10.0334C71.2076 10.2157 71.275 10.3625 71.41 10.4737C71.5449 10.585 71.7627 10.6761 72.0634 10.7472L72.9299 10.946C73.4318 11.062 73.8058 11.2408 74.052 11.4822C74.2982 11.7237 74.4213 12.0374 74.4213 12.4233C74.4213 12.75 74.3266 13.0412 74.1373 13.2969C73.9502 13.5502 73.6886 13.7491 73.3525 13.8935C73.0186 14.0379 72.6316 14.1101 72.1912 14.1101C71.5804 14.1101 71.0821 13.9799 70.6962 13.7195C70.3103 13.4567 70.0736 13.0838 69.986 12.6009L71.0123 12.4446C71.0762 12.7121 71.2076 12.9145 71.4064 13.0518C71.6053 13.1868 71.8645 13.2543 72.1841 13.2543C72.5321 13.2543 72.8103 13.1821 73.0186 13.0376C73.227 12.8909 73.3311 12.7121 73.3311 12.5014C73.3311 12.331 73.2672 12.1877 73.1394 12.0717C73.0139 11.9557 72.821 11.8681 72.5605 11.8089L71.6373 11.6065C71.1283 11.4905 70.7518 11.3059 70.508 11.0526C70.2665 10.7992 70.1458 10.4785 70.1458 10.0902C70.1458 9.76823 70.2357 9.48651 70.4157 9.24503C70.5956 9.00355 70.8442 8.81534 71.1614 8.6804C71.4786 8.54309 71.842 8.47443 72.2516 8.47443C72.8411 8.47443 73.3051 8.60227 73.6436 8.85795C73.9822 9.11127 74.2059 9.45099 74.3148 9.87713ZM78.1349 8.54545V9.39773H75.1555V8.54545H78.1349ZM75.9545 7.23864H77.0163V12.3984C77.0163 12.6044 77.0471 12.7595 77.1087 12.8636C77.1702 12.9654 77.2495 13.0353 77.3466 13.0732C77.446 13.1087 77.5537 13.1264 77.6697 13.1264C77.755 13.1264 77.8295 13.1205 77.8935 13.1087C77.9574 13.0968 78.0071 13.0874 78.0426 13.0803L78.2344 13.9574C78.1728 13.9811 78.0852 14.0047 77.9716 14.0284C77.858 14.0545 77.7159 14.0687 77.5455 14.071C77.2661 14.0758 77.0057 14.026 76.7642 13.9219C76.5227 13.8177 76.3274 13.6567 76.1783 13.4389C76.0291 13.2211 75.9545 12.9477 75.9545 12.6186V7.23864Z" fill="#00A699"/>
<path d="M88.0644 3.77851L83.514 6.11798L83.5464 1.37704L88.0644 3.77851Z" fill="white"/>
<defs>
<filter id="filter0_d_55_1923" x="0" y="0" width="87" height="24" filterUnits="userSpaceOnUse" color-interpolation-filters="sRGB">
<feFlood flood-opacity="0" result="BackgroundImageFix"/>
<feColorMatrix in="SourceAlpha" type="matrix" values="0 0 0 0 0 0 0 0 0 0 0 0 0 0 0 0 0 0 127 0" result="hardAlpha"/>
<feOffset dy="2"/>
<feGaussianBlur stdDeviation="1"/>
<feComposite in2="hardAlpha" operator="out"/>
<feColorMatrix type="matrix" values="0 0 0 0 0 0 0 0 0 0 0 0 0 0 0 0 0 0 0.25 0"/>
<feBlend mode="normal" in2="BackgroundImageFix" result="effect1_dropShadow_55_1923"/>
<feBlend mode="normal" in="SourceGraphic" in2="effect1_dropShadow_55_1923" result="shape"/>
</filter>
</defs>
</svg>
